# xmcd
#
# Track frame offsets: 
#        150
#        13747
#        26342
#        47411
#        61927
#        76922
#        90379
#        102459
#        115735
#        127873
#        144798
#        156859
#
# Disc length: 2256 seconds
#
# Revision: 0
# Processed by: cddbd v1.5.2PL0 Copyright (c) Steve Scherf et al.
# Submitted via: ExactAudioCopy v1.3
#
DISCID=8308ce0c
DTITLE=Glen Campbell - Hear And See The Hits
DYEAR=2007
DGENRE=Country
TTITLE0=Rhinestone Cowboy
TTITLE1=By The Time I Get To Phoenix
TTITLE2=Bridge Over Troubled Water
TTITLE3=Learning The Blues
TTITLE4=All The Way
TTITLE5=Young At Heart
TTITLE6=You Don't Have To Say You Love Me
TTITLE7=Pretend
TTITLE8=The Impossible Dream
TTITLE9=Feelings
TTITLE10=Blue Sky Shining
TTITLE11=You'll Never Walk Alone
EXTD=
EXTT0=
EXTT1=
EXTT2=
EXTT3=
EXTT4=
EXTT5=
EXTT6=
EXTT7=
EXTT8=
EXTT9=
EXTT10=
EXTT11=
PLAYORDER=
